<svg width="278" height="172" viewBox="0 0 278 172" fill="none" xmlns="http://www.w3.org/2000/svg">
<path d="M124.708 8C132.36 3.58172 144.768 3.58172 152.42 8L263.272 72C270.924 76.4183 270.924 83.5817 263.272 88L152.42 152C144.768 156.418 132.36 156.418 124.708 152L13.8563 88C6.20363 83.5817 6.20362 76.4183 13.8563 72L124.708 8Z" fill="white" stroke="#717171"/>
<rect width="128" height="16" transform="matrix(0.866025 0.5 0 1 13.8564 88)" fill="#1F1F1F"/>
<rect width="128" height="16" transform="matrix(0.866025 -0.5 0 1 152.42 152)" fill="#1F1F1F"/>
<path d="M8.1167 80C8.1167 83.1242 10.31 85.9526 13.8562 88V104C10.31 101.953 8.1167 99.1242 8.1167 96V80Z" fill="#1F1F1F"/>
<path d="M124.708 152C132.36 156.418 144.768 156.418 152.42 152V168C144.768 172.418 132.36 172.418 124.708 168V152Z" fill="#1F1F1F"/>
<path d="M269.011 80C269.011 83.1242 266.818 85.9526 263.271 88V104C266.818 101.953 269.011 99.1242 269.011 96V80Z" fill="#1F1F1F"/>
</svg>
